<?xml version="1.0" standalone="no"?>
<!DOCTYPE svg PUBLIC "-//W3C//DTD SVG 20010904//EN"
 "http://www.w3.org/TR/2001/REC-SVG-20010904/DTD/svg10.dtd">
<svg version="1.0" xmlns="http://www.w3.org/2000/svg"
 width="320.000000pt" height="320.000000pt" viewBox="0 0 320.000000 320.000000"
 preserveAspectRatio="xMidYMid meet">
<metadata>
Created by potrace 1.11, written by Peter Selinger 2001-2013
</metadata>
<g transform="translate(0.000000,320.000000) scale(0.100000,-0.100000)"
fill="#000000" stroke="none">
<path d="M1586 3135 c-9 -33 -26 -91 -37 -130 -10 -38 -46 -164 -79 -280 -32
-115 -88 -316 -124 -445 -36 -129 -70 -251 -76 -270 -6 -19 -37 -129 -69 -245
l-59 -209 33 -116 c19 -64 37 -125 41 -135 9 -22 28 -32 -189 102 -92 56 -174
103 -182 103 -8 0 -15 6 -15 13 0 8 -4 7 -10 -3 -6 -10 -10 -11 -10 -2 0 6 -9
12 -20 12 -11 0 -20 -4 -20 -10 0 -5 -5 -10 -11 -10 -5 0 -7 5 -4 10 3 6 1 10
-4 10 -6 0 -11 -4 -11 -8 0 -12 -174 -10 -182 2 -5 7 -8 7 -8 -1 0 -7 -8 -13
-17 -13 -15 0 -16 2 -3 10 12 8 8 10 -15 11 -29 1 -30 1 -5 9 23 7 22 8 -10 9
-23 1 -30 4 -22 10 20 12 67 6 64 -8 -1 -7 2 -10 7 -7 5 4 14 -1 18 -9 8 -14
11 -14 26 3 14 15 14 19 2 19 -8 0 -11 -5 -8 -10 3 -5 0 -8 -6 -6 -7 3 -11 9
-9 14 4 14 91 14 100 1 12 -18 9 -31 -4 -18 -16 16 -43 15 -57 -1 -8 -10 -7
-14 4 -14 8 0 12 4 9 9 -3 4 5 8 18 8 19 0 20 -2 8 -10 -12 -8 -10 -9 9 -7 13
2 29 14 36 26 11 21 13 22 28 7 21 -21 33 -21 16 1 -12 15 -12 16 4 10 28 -10
20 1 -13 18 -16 9 -30 13 -30 9 0 -3 -8 2 -17 13 -10 10 -15 14 -10 9 16 -21
6 -28 -14 -10 -21 19 -22 19 -36 -3 -9 -13 -25 -23 -37 -22 -19 1 -18 2 4 9
16 5 19 8 8 9 -9 1 -20 6 -24 13 -5 8 -2 9 9 5 9 -3 28 0 43 7 23 13 24 15 7
20 -11 3 -29 15 -41 27 -12 11 -22 15 -22 8 0 -9 -3 -9 -14 0 -8 6 -18 11 -22
9 -12 -3 -74 25 -74 34 0 9 39 -2 46 -13 3 -5 13 -9 22 -9 9 1 0 9 -21 19 -20
9 -35 20 -32 24 3 4 2 5 -1 2 -4 -2 -24 9 -44 25 -21 17 -48 30 -61 30 -14 0
-19 3 -13 8 7 4 -5 17 -31 33 -31 20 -42 23 -41 12 1 -8 9 -19 17 -24 12 -7
12 -9 -1 -10 -8 -1 -1 -5 15 -9 25 -6 26 -8 7 -9 -22 -1 -22 -1 -5 -33 9 -18
16 -36 15 -40 -1 -5 2 -8 8 -8 6 0 9 -3 8 -7 -4 -14 26 -83 36 -83 5 0 6 -3 3
-6 -3 -4 -1 -16 5 -28 7 -11 11 -24 10 -28 -1 -5 2 -8 8 -8 6 0 9 -3 8 -7 -5
-20 25 -83 40 -83 11 0 13 -3 6 -8 -14 -8 11 -82 28 -82 5 0 7 -4 3 -9 -9 -15
27 -81 44 -82 10 0 11 -3 4 -5 -14 -6 3 -64 19 -64 5 0 6 -4 3 -10 -3 -5 4
-11 17 -11 17 -1 18 -3 5 -6 -9 -2 -17 -6 -17 -8 0 -11 24 -55 30 -55 4 0 7
-6 7 -14 0 -21 24 -76 34 -76 5 0 5 -7 2 -17 -5 -12 -3 -14 7 -8 8 5 11 4 7
-2 -9 -14 27 -95 37 -86 4 4 4 0 0 -10 -4 -10 -13 -16 -23 -13 -9 2 -36 7 -61
11 -25 4 -56 8 -70 10 -14 2 -74 11 -135 20 -174 25 -179 26 -205 31 -14 2
-47 7 -75 10 -27 3 -56 7 -62 9 -7 2 -13 1 -13 -3 1 -13 27 -42 39 -42 7 0 10
-4 7 -8 -10 -16 44 -82 67 -83 21 0 21 -1 2 -9 -11 -5 -14 -9 -7 -9 6 -1 12
-7 12 -15 0 -8 9 -21 20 -29 11 -8 17 -17 13 -20 -3 -4 -1 -7 5 -7 6 0 13 -8
16 -17 3 -10 19 -31 34 -48 16 -16 30 -34 33 -40 2 -5 8 -9 12 -7 5 1 6 -2 2
-8 -8 -13 36 -71 48 -63 6 3 7 2 4 -4 -5 -8 62 -119 81 -133 4 -3 19 -23 33
-45 15 -22 37 -52 50 -66 24 -27 121 -65 138 -55 5 4 11 2 13 -3 1 -6 14 -12
28 -14 14 -2 36 -9 50 -14 14 -6 35 -9 47 -8 12 1 20 -2 17 -6 -5 -8 1 -10 39
-13 6 -1 14 -4 17 -7 4 -4 96 -32 150 -45 3 0 12 -4 20 -7 8 -4 24 -8 35 -10
11 -2 27 -7 35 -10 27 -10 424 -125 460 -133 19 -4 42 -7 50 -5 19 3 460 130
480 138 8 3 24 8 35 10 11 2 27 6 35 10 8 3 20 7 25 9 404 105 489 130 493
144 2 6 10 16 17 23 7 8 36 47 64 88 28 41 67 94 86 119 18 25 34 49 34 54 1
4 24 40 52 78 40 56 48 73 38 80 -11 8 -10 9 2 5 20 -6 63 48 53 65 -4 6 -3 8
4 4 6 -3 13 -2 16 3 4 5 -4 12 -16 14 -20 4 -20 4 4 6 17 1 34 11 46 29 33 47
34 51 13 49 -11 0 -17 -5 -15 -9 3 -4 -1 -8 -9 -8 -15 0 -32 -27 -28 -43 1 -5
-3 -6 -8 -3 -5 3 -24 -8 -42 -24 -20 -17 -41 -27 -51 -24 -9 2 -19 0 -23 -5
-3 -7 0 -8 9 -5 9 3 16 3 16 -1 0 -10 -27 -35 -38 -35 -6 0 -13 -6 -15 -12 -3
-7 -6 14 -6 48 -1 35 4 66 12 73 10 11 10 13 0 7 -10 -5 -13 3 -13 29 0 35 -2
36 -27 31 -61 -12 -325 -47 -329 -44 -4 4 43 122 69 173 9 17 33 73 55 125 22
52 61 142 87 199 25 58 43 111 41 118 -3 7 -2 13 3 13 14 0 40 78 27 84 -6 2
-5 5 4 5 13 1 28 29 87 169 11 27 11 32 1 26 -7 -4 -4 2 6 14 28 33 14 36 -20
5 -16 -15 -30 -26 -31 -25 -2 1 -9 2 -15 2 -9 0 -8 -4 2 -10 12 -8 11 -10 -6
-10 -26 0 -152 -80 -153 -97 -1 -7 -10 -13 -21 -13 -11 0 -20 -4 -20 -9 0 -5
7 -8 16 -7 9 0 18 -7 20 -17 1 -10 8 -25 15 -33 7 -9 12 -27 12 -42 -1 -57 -2
-57 -151 -57 -75 0 -143 4 -151 9 -9 6 -12 5 -8 -1 4 -6 -4 -10 -18 -10 -14 0
-43 -12 -65 -27 -22 -14 -44 -26 -49 -26 -6 0 -14 -6 -18 -13 -4 -7 -60 -45
-123 -84 -156 -95 -145 -89 -136 -68 4 10 22 71 41 135 l33 116 -57 205 c-32
112 -100 353 -151 534 -51 182 -112 400 -137 485 -24 85 -46 166 -49 180 -6
29 -52 185 -63 215 -7 16 -12 8 -25 -40z m1311 -1331 c-3 -3 -12 -4 -19 -1 -8
3 -5 6 6 6 11 1 17 -2 13 -5z m-2530 -27 c6 -4 15 -3 18 3 5 8 11 7 21 -1 7
-6 11 -16 7 -22 -4 -6 0 -8 9 -4 19 7 38 -11 31 -29 -3 -8 5 -18 21 -24 14 -5
26 -14 26 -19 0 -5 11 -8 24 -5 14 2 28 0 31 -6 4 -6 11 -7 17 -4 7 5 8 2 3
-6 -6 -10 -4 -12 8 -7 20 8 43 -18 26 -29 -7 -4 -15 -2 -17 4 -2 8 -13 6 -32
-8 l-29 -21 2 21 c1 11 7 18 13 16 14 -6 25 4 18 15 -2 5 -16 4 -30 -2 -21 -7
-25 -7 -21 4 3 8 -1 14 -8 14 -7 0 -11 -6 -8 -14 4 -9 0 -11 -12 -7 -11 5 -13
10 -6 17 19 19 12 26 -21 24 -17 -1 -33 3 -35 11 -3 8 2 10 14 6 11 -4 14 -3
7 3 -6 4 -10 16 -8 26 1 11 -1 16 -4 12 -4 -4 -7 -12 -7 -17 0 -6 -5 -13 -12
-15 -6 -2 -10 4 -8 14 3 23 -4 35 -16 27 -6 -4 -6 -11 2 -20 6 -8 8 -14 4 -14
-5 0 0 -9 10 -20 11 -12 13 -20 6 -20 -7 0 -17 13 -24 28 -8 18 -18 27 -27 24
-9 -3 -7 2 5 13 11 9 15 14 8 10 -7 -3 -21 3 -33 15 -17 17 -18 20 -2 17 9 -1
22 -6 29 -10z m2492 0 c6 -8 8 -17 4 -20 -10 -11 -33 -8 -33 4 0 6 7 8 18 4
14 -5 15 -4 4 7 -11 11 -17 8 -33 -14 -12 -16 -27 -25 -38 -23 -14 2 -17 -1
-14 -14 3 -11 -2 -17 -17 -18 -11 -1 -18 2 -15 7 3 6 -1 7 -10 3 -9 -3 -13 -9
-8 -12 12 -9 15 -31 4 -31 -5 0 -12 5 -14 10 -3 6 -4 5 -3 -2 2 -7 13 -12 25
-11 11 2 20 -1 20 -5 -3 -20 2 -32 12 -26 8 5 8 9 -1 14 -9 5 -9 9 -1 14 6 4
11 1 11 -6 0 -10 2 -10 9 1 5 8 8 26 6 41 -3 18 1 27 11 27 9 0 13 -6 10 -14
-3 -8 -2 -11 3 -8 5 3 12 1 16 -5 3 -5 -1 -10 -9 -10 -8 0 -18 -10 -22 -22 -3
-12 -13 -28 -20 -36 -8 -7 -12 -18 -8 -23 3 -5 2 -9 -3 -8 -27 5 -35 -1 -23
-16 11 -13 10 -14 -4 -9 -10 4 -14 13 -11 24 3 11 -1 20 -10 24 -9 3 -13 10
-10 16 3 5 2 10 -3 10 -8 0 -9 22 -3 52 1 8 69 48 77 45 3 -1 10 6 15 16 6 9
14 15 19 12 5 -3 11 -1 15 5 8 14 20 13 34 -3z m-14 -47 c-3 -5 1 -11 7 -14 7
-3 4 -4 -7 -3 -22 2 -36 17 -29 29 3 4 11 5 19 2 8 -4 13 -10 10 -14z m-68
-45 c0 -6 -6 -12 -14 -12 -7 0 -13 6 -13 12 0 6 6 12 13 12 8 0 14 -6 14 -12z
m-2307 -20 c-11 -14 0 -30 23 -32 40 -2 43 -3 29 -12 -10 -6 -10 -10 2 -20 10
-8 16 -9 21 -1 3 5 10 10 16 10 7 0 7 -17 0 -48 -1 -2 -7 0 -13 5 -7 4 -26 8
-43 8 -23 0 -29 5 -27 18 2 9 -1 17 -5 16 -4 -1 -19 3 -33 9 -24 10 -24 11 -3
11 27 1 28 37 0 37 -17 0 -17 -1 -1 -13 15 -11 15 -12 -4 -10 -12 0 -18 7 -17
17 4 19 0 16 35 16 20 0 27 -3 20 -11z m189 -69 c7 -8 20 -13 30 -11 10 2 24
-1 32 -7 11 -8 10 -9 -4 -4 -11 3 -20 0 -24 -10 -5 -13 -7 -13 -14 -2 -5 7
-13 14 -19 14 -5 1 -14 2 -20 3 -12 1 -13 31 -1 31 5 0 14 -6 20 -14z m-152
-132 c-3 -3 -12 -4 -19 -1 -8 3 -5 6 6 6 11 1 17 -2 13 -5z m248 -264 c3 -5 1
-10 -4 -10 -6 0 -11 5 -11 10 0 6 2 10 4 10 3 0 8 -4 11 -10z m-98 -6 c-3 -3
-12 -4 -19 -1 -8 3 -5 6 6 6 11 1 17 -2 13 -5z m66 -1 c-7 -2 -19 -2 -25 0 -7
3 -2 5 12 5 14 0 19 -2 13 -5z m-76 -69 c-3 -3 -12 -4 -19 -1 -8 3 -5 6 6 6
11 1 17 -2 13 -5z m66 -1 c-7 -2 -19 -2 -25 0 -7 3 -2 5 12 5 14 0 19 -2 13
-5z m104 -89 c-3 -3 -12 -4 -19 -1 -8 3 -5 6 6 6 11 1 17 -2 13 -5z m138 -114
c3 -6 -1 -7 -9 -4 -18 7 -21 14 -7 14 6 0 13 -4 16 -10z m1982 -156 c-3 -3
-12 -4 -19 -1 -8 3 -5 6 6 6 11 1 17 -2 13 -5z m-2530 -90 c-3 -3 -12 -4 -19
-1 -8 3 -5 6 6 6 11 1 17 -2 13 -5z m2520 0 c-3 -3 -12 -4 -19 -1 -8 3 -5 6 6
6 11 1 17 -2 13 -5z m-2490 -90 c-3 -3 -12 -4 -19 -1 -8 3 -5 6 6 6 11 1 17
-2 13 -5z m38 -64 c-3 -5 -12 -10 -18 -10 -7 0 -6 4 3 10 19 12 23 12 15 0z
m22 -96 c-3 -3 -12 -4 -19 -1 -8 3 -5 6 6 6 11 1 17 -2 13 -5z m50 -86 c-3 -7
-5 -2 -5 12 0 14 2 19 5 13 2 -7 2 -19 0 -25z m196 15 c-7 -2 -19 -2 -25 0 -7
3 -2 5 12 5 14 0 19 -2 13 -5z m1234 1 c-3 -3 -12 -4 -19 -1 -8 3 -5 6 6 6 11
1 17 -2 13 -5z m-1367 -19 c0 -2 -9 -3 -19 -2 -11 0 -18 5 -15 9 4 6 34 0 34
-7z m77 -1 c-3 -3 -12 -4 -19 -1 -8 3 -5 6 6 6 11 1 17 -2 13 -5z m130 0 c-3
-3 -12 -4 -19 -1 -8 3 -5 6 6 6 11 1 17 -2 13 -5z m400 0 c-3 -3 -12 -4 -19
-1 -8 3 -5 6 6 6 11 1 17 -2 13 -5z m46 -1 c-7 -2 -19 -2 -25 0 -7 3 -2 5 12
5 14 0 19 -2 13 -5z m664 1 c-3 -3 -12 -4 -19 -1 -8 3 -5 6 6 6 11 1 17 -2 13
-5z m-1032 -64 c-3 -5 -12 -10 -18 -10 -7 0 -6 4 3 10 19 12 23 12 15 0z
m1048 -7 c-7 -2 -19 -2 -25 0 -7 3 -2 5 12 5 14 0 19 -2 13 -5z m-1016 -19
c-3 -3 -12 -4 -19 -1 -8 3 -5 6 6 6 11 1 17 -2 13 -5z m440 0 c-3 -3 -12 -4
-19 -1 -8 3 -5 6 6 6 11 1 17 -2 13 -5z m67 -3 c4 -5 -3 -7 -14 -4 -23 6 -26
13 -6 13 8 0 17 -4 20 -9z m373 3 c-3 -3 -12 -4 -19 -1 -8 3 -5 6 6 6 11 1 17
-2 13 -5z m-740 -70 c-3 -3 -12 -4 -19 -1 -8 3 -5 6 6 6 11 1 17 -2 13 -5z
m430 -20 c-3 -3 -12 -4 -19 -1 -8 3 -5 6 6 6 11 1 17 -2 13 -5z"/>
<path d="M386 1772 c-3 -5 1 -9 9 -9 8 0 12 4 9 9 -3 4 -7 8 -9 8 -2 0 -6 -4
-9 -8z"/>
<path d="M2796 1753 c-6 -14 -5 -15 5 -6 7 7 10 15 7 18 -3 3 -9 -2 -12 -12z"/>
<path d="M2717 1643 c-3 -5 4 -15 16 -23 21 -12 21 -12 7 6 -8 10 -15 20 -16
22 -1 2 -4 -1 -7 -5z"/>
<path d="M483 1609 c2 -19 8 -25 24 -25 12 0 19 4 16 9 -3 4 -8 6 -11 2 -3 -3
-11 5 -18 17 l-12 23 1 -26z"/>
<path d="M545 1591 c-3 -5 -2 -12 3 -15 5 -3 9 1 9 9 0 17 -3 19 -12 6z"/>
<path d="M2622 1673 c-10 -4 -8 -9 5 -19 16 -13 15 -13 -10 -4 -20 7 -26 7
-22 -1 4 -6 0 -9 -11 -7 -12 2 -18 -2 -16 -11 2 -9 -3 -11 -15 -7 -14 5 -15 4
-7 -4 9 -9 18 -8 36 4 14 9 28 13 31 9 12 -12 7 -21 -10 -19 -12 1 -18 -7 -19
-21 -1 -14 4 -23 13 -23 8 0 11 -5 8 -10 -4 -6 -10 -8 -14 -6 -4 3 -8 -1 -8
-9 0 -12 4 -12 19 2 21 19 48 26 48 12 0 -5 -6 -9 -14 -9 -8 0 -18 -4 -21 -10
-4 -7 2 -7 18 -1 14 6 28 7 32 3 3 -3 3 2 0 13 -6 19 -6 19 8 2 13 -16 15 -16
21 -1 9 23 8 27 -7 21 -8 -3 -14 0 -14 6 0 7 -4 21 -9 32 -7 17 -6 18 8 5 9
-8 14 -18 11 -22 -2 -5 1 -8 6 -8 15 0 14 16 -2 32 -8 7 -13 22 -11 31 1 12
-2 17 -11 14 -7 -3 -16 -2 -21 3 -5 4 -15 5 -22 3z m37 -39 c-7 -9 -7 -19 1
-33 6 -12 8 -22 5 -22 -23 -6 -52 -4 -62 4 -19 14 -16 28 5 25 11 -2 17 3 16
14 -1 10 1 17 5 16 19 -2 22 4 10 19 -13 15 -12 15 8 3 16 -10 19 -18 12 -26z"/>
<path d="M2625 1600 c-4 -6 -12 -7 -18 -4 -7 4 -8 3 -4 -2 4 -4 19 -9 32 -10
20 -1 23 2 14 13 -14 16 -16 16 -24 3z"/>
<path d="M2531 1600 c10 -21 10 -23 -2 -14 -19 14 -45 11 -41 -5 2 -8 -3 -11
-12 -8 -9 4 -18 2 -21 -3 -3 -4 6 -7 20 -5 14 1 25 -2 25 -6 0 -10 -12 -12
-55 -9 -16 1 -28 -1 -24 -4 5 -5 33 -7 89 -5 14 1 19 3 13 6 -18 6 -16 23 1
23 8 0 17 -8 19 -17 3 -12 5 -9 6 8 0 14 -6 34 -15 45 -14 18 -14 18 -3 -6z
m-11 -16 c0 -8 -19 -13 -24 -6 -3 5 1 9 9 9 8 0 15 -2 15 -3z"/>
<path d="M2557 1580 c3 -11 7 -20 9 -20 2 0 4 9 4 20 0 11 -4 20 -9 20 -5 0
-7 -9 -4 -20z"/>
<path d="M707 1537 c-3 -8 1 -14 8 -14 7 0 11 6 8 14 -3 7 -6 13 -8 13 -2 0
-5 -6 -8 -13z"/>
<path d="M768 1543 c7 -3 16 -2 19 1 4 3 -2 6 -13 5 -11 0 -14 -3 -6 -6z"/>
<path d="M3085 984 c-38 -8 -85 -15 -102 -16 -18 -1 -33 -6 -33 -11 0 -6 3 -7
6 -4 16 15 42 -13 39 -43 -1 -16 1 -28 5 -25 9 5 7 46 -3 63 -9 13 18 13 40
-1 6 -4 15 -2 19 4 5 8 3 9 -6 4 -9 -6 -11 -4 -5 4 5 9 10 10 18 2 7 -7 14 -7
23 0 8 7 14 7 19 -1 11 -18 31 -11 43 15 6 14 11 25 9 24 -1 0 -33 -7 -72 -15z"/>
<path d="M2910 943 c7 -3 8 -9 1 -17 -8 -9 -7 -13 3 -13 17 0 14 30 -3 33 -7
2 -7 0 -1 -3z"/>
<path d="M3029 903 c-13 -16 -12 -17 4 -4 16 13 21 21 13 21 -2 0 -10 -8 -17
-17z"/>
<path d="M2945 899 c-3 -4 2 -6 10 -5 21 3 28 13 10 13 -9 0 -18 -4 -20 -8z"/>
<path d="M2959 878 c-5 -18 -6 -38 -1 -34 7 8 12 36 6 36 -2 0 -4 -1 -5 -2z"/>
<path d="M2906 862 c-3 -5 1 -9 9 -9 8 0 15 4 15 9 0 4 -4 8 -9 8 -6 0 -12 -4
-15 -8z"/>
</g>
</svg>
